<?xml version="1.0" standalone="no"?>
<!DOCTYPE svg PUBLIC "-//W3C//DTD SVG 20010904//EN"
 "http://www.w3.org/TR/2001/REC-SVG-20010904/DTD/svg10.dtd">
<svg version="1.0" xmlns="http://www.w3.org/2000/svg"
 width="150.000000pt" height="150.000000pt" viewBox="0 0 150.000000 150.000000"
 preserveAspectRatio="xMidYMid meet">
<metadata>
Created by potrace 1.14, written by Peter Selinger 2001-2017
</metadata>
<g transform="translate(0.000000,150.000000) scale(0.100000,-0.100000)"
fill="#000000" stroke="none">
<path d="M720 1434 c0 -4 10 -22 21 -41 18 -29 19 -37 8 -44 -19 -12 -46 -11
-54 1 -13 20 -22 9 -21 -25 1 -37 10 -45 23 -20 5 8 24 18 42 21 31 6 34 5 27
-12 -12 -31 -19 -74 -12 -74 3 0 20 23 37 50 18 30 44 57 63 66 l31 14 -32 -5
c-27 -4 -40 2 -78 35 -46 40 -55 45 -55 34z"/>
<path d="M558 1186 c-22 -49 21 -87 52 -46 l17 23 6 -22 c6 -25 20 -27 41 -6
13 13 15 13 18 -7 4 -32 52 -37 68 -8 26 49 -11 91 -50 55 -17 -15 -19 -15
-25 4 -7 25 -43 28 -52 6 -5 -13 -8 -13 -20 5 -19 27 -41 25 -55 -4z m174 -48
c-7 -7 -12 -8 -12 -2 0 14 12 26 19 19 2 -3 -1 -11 -7 -17z"/>
<path d="M840 1183 c-28 -10 -69 -56 -75 -84 -20 -88 87 -103 131 -18 19 38
18 65 -6 89 -21 21 -25 22 -50 13z m38 -56 c2 -9 -10 -31 -28 -48 -25 -26 -33
-29 -45 -19 -28 24 11 93 49 88 12 -2 22 -11 24 -21z"/>
<path d="M497 1173 c-10 -10 -8 -51 2 -57 15 -10 41 5 41 23 0 28 -28 50 -43
34z"/>
<path d="M532 1094 c-49 -25 -85 -73 -122 -160 -76 -180 -32 -374 85 -374 51
0 74 26 90 104 18 86 31 106 106 160 144 105 147 194 7 256 -66 29 -126 34
-166 14z m143 -51 c51 -18 85 -50 85 -81 0 -27 -38 -67 -115 -122 -60 -42 -82
-79 -96 -156 -12 -68 -23 -84 -53 -84 -47 0 -86 74 -86 164 0 89 48 211 103
263 47 45 71 48 162 16z"/>
<path d="M842 963 c-19 -7 -42 -58 -42 -93 0 -32 37 -80 62 -80 47 0 83 83 57
132 -21 40 -47 53 -77 41z m50 -59 c10 -21 9 -31 -3 -52 -8 -15 -21 -27 -29
-27 -22 0 -36 49 -22 80 15 32 39 32 54 -1z"/>
<path d="M952 888 c-26 -26 -8 -88 25 -88 19 0 37 44 29 74 -7 28 -33 35 -54
14z m28 -39 c0 -11 -4 -18 -10 -14 -5 3 -7 12 -3 20 7 21 13 19 13 -6z"/>
<path d="M1021 834 c-12 -26 -1 -54 20 -54 15 0 40 47 33 64 -9 25 -39 19 -53
-10z"/>
<path d="M1090 810 c-40 -40 -11 -92 30 -55 24 21 26 60 5 69 -9 3 -24 -3 -35
-14z"/>
<path d="M850 773 c-25 -13 -39 -29 -49 -59 -13 -38 -12 -47 12 -126 33 -106
34 -139 2 -206 -34 -74 -33 -104 7 -137 26 -22 39 -26 71 -22 71 10 158 100
197 204 65 174 45 280 -64 328 -77 34 -133 40 -176 18z m146 -49 c86 -31 109
-93 80 -217 -33 -140 -119 -247 -199 -247 -52 0 -60 40 -22 114 32 64 32 122
0 214 -31 89 -31 107 0 138 28 27 60 27 141 -2z"/>
<path d="M1138 749 c-21 -12 -24 -45 -4 -52 20 -8 49 16 45 38 -5 23 -19 27
-41 14z"/>
</g>
</svg>
